<?xml version="1.0" encoding="UTF-8"?>
<!DOCTYPE svg PUBLIC "-//W3C//DTD SVG 1.1//EN" "http://www.w3.org/Graphics/SVG/1.1/DTD/svg11.dtd">
<svg xmlns="http://www.w3.org/2000/svg" version="1.1" width="256px" height="256px" style="shape-rendering:geometricPrecision; text-rendering:geometricPrecision; image-rendering:optimizeQuality; fill-rule:evenodd; clip-rule:evenodd" xmlns:xlink="http://www.w3.org/1999/xlink">
<g><path style="opacity:1" fill="#4b5569" d="M 232.5,22.5 C 223.481,29.3498 214.314,36.0165 205,42.5C 203.775,42.1377 202.609,41.6377 201.5,41C 152.167,40.3333 102.833,40.3333 53.5,41C 52.0692,41.4652 50.9025,42.2986 50,43.5C 48.8419,68.9148 48.3419,94.4148 48.5,120C 48.6667,144.833 48.8333,169.667 49,194.5C 49.8699,195.108 50.3699,195.941 50.5,197C 42.7718,208.068 34.2718,218.568 25,228.5C 23.9055,230.078 23.0722,231.745 22.5,233.5C 19.3389,230.525 17.1723,226.858 16,222.5C 15.3333,159.167 15.3333,95.8333 16,32.5C 18.8333,24.3333 24.3333,18.8333 32.5,16C 95.8333,15.3333 159.167,15.3333 222.5,16C 226.72,16.9346 230.053,19.1013 232.5,22.5 Z"/></g>
<g><path style="opacity:1" fill="#2e3440" d="M 232.5,22.5 C 235.899,24.947 238.065,28.2803 239,32.5C 239.667,96.1667 239.667,159.833 239,223.5C 235.968,232.533 229.801,238.033 220.5,240C 158.5,240.667 96.5,240.667 34.5,240C 29.701,239.104 25.701,236.937 22.5,233.5C 23.0722,231.745 23.9055,230.078 25,228.5C 34.2718,218.568 42.7718,208.068 50.5,197C 50.3699,195.941 49.8699,195.108 49,194.5C 48.8333,169.667 48.6667,144.833 48.5,120C 48.3419,94.4148 48.8419,68.9148 50,43.5C 50.9025,42.2986 52.0692,41.4652 53.5,41C 102.833,40.3333 152.167,40.3333 201.5,41C 202.609,41.6377 203.775,42.1377 205,42.5C 214.314,36.0165 223.481,29.3498 232.5,22.5 Z"/></g>
<g><path style="opacity:1" fill="#4b5669" d="M 55.5,47.5 C 103.5,47.5 151.5,47.5 199.5,47.5C 199.5,95.5 199.5,143.5 199.5,191.5C 151.5,191.5 103.5,191.5 55.5,191.5C 55.5,143.5 55.5,95.5 55.5,47.5 Z"/></g>
<g><path style="opacity:1" fill="#d7dee8" d="M 67.5,57.5 C 85.8333,57.5 104.167,57.5 122.5,57.5C 122.5,62.8333 122.5,68.1667 122.5,73.5C 110.833,73.5 99.1667,73.5 87.5,73.5C 87.5,79.5 87.5,85.5 87.5,91.5C 98.1667,91.5 108.833,91.5 119.5,91.5C 119.5,96.8333 119.5,102.167 119.5,107.5C 108.833,107.5 98.1667,107.5 87.5,107.5C 87.5,118.5 87.5,129.5 87.5,140.5C 80.8333,140.5 74.1667,140.5 67.5,140.5C 67.5,112.833 67.5,85.1667 67.5,57.5 Z"/></g>
</svg>
